# xmcd
#
# Track frame offsets: 
#        182
#        13085
#        29530
#        46605
#        58952
#        76490
#        88875
#        102207
#        117310
#        130267
#        147815
#        163445
#        181420
#        200020
#
# Disc length: 2859 seconds
#
# Revision: 3
# Processed by: cddbd v1.5.2PL0 Copyright (c) Steve Scherf et al.
# Submitted via: ExactAudioCopy v1.3
#
DISCID=c90b290e
DTITLE=Pam Tillis - Sweetheart's Dance
DYEAR=1994
DGENRE=Country
TTITLE0=Mi Vida Loca (My Crazy Life)
TTITLE1=Sweetheart's Dance
TTITLE2=Calico Plains
TTITLE3=When You Walk In The Room
TTITLE4=Spilled Perfume
TTITLE5=I Was Blown Away
TTITLE6=They Don't Break 'em Like They Used To
TTITLE7=In Between Dances
TTITLE8=Better Off Blue
TTITLE9='Till All The Lonely's Gone
TTITLE10=Melancholy Child
TTITLE11=Maybe It Was Memphis
TTITLE12=Already Fallen
TTITLE13=Cleopatra, Queen Of Denial
EXTD=ID3G: 2
EXTT0=
EXTT1=
EXTT2=
EXTT3=
EXTT4=
EXTT5=
EXTT6=
EXTT7=
EXTT8=
EXTT9=
EXTT10=
EXTT11=
EXTT12=
EXTT13=
PLAYORDER=
